# xmcd
#
# Track frame offsets:
#	150
#	13635
#	30420
#	40650
#	54835
#	66937
#	81302
#	94985
#	112782
#	122767
#	137905
#	150292
#
# Disc length: 2177 seconds
# Revision: 4
# Processed by: cddbd v1.5.2PL0 Copyright (c) Steve Scherf et al.
# Submitted via: dBpowerAMP V12.0
#
DISCID=8c087f0c
DTITLE=The Seldom Scene - Act 1
DYEAR=1972
DGENRE=Country
TTITLE0=Raised By The Railroad Line
TTITLE1=Darling Corey
TTITLE2=Want Of A Woman
TTITLE3=Sweet Baby James
TTITLE4=Joshua
TTITLE5=Will There Be Any Stars In My Crown?
TTITLE6=City Of New Orleans
TTITLE7=With Body And Soul
TTITLE8=Summertime Is Past And Gone
TTITLE9=500 Miles
TTITLE10=Cannonball
TTITLE11=What Am I Doing Hanging 'Round?
EXTD=
EXTT0=
EXTT1=
EXTT2=
EXTT3=
EXTT4=
EXTT5=
EXTT6=
EXTT7=
EXTT8=
EXTT9=
EXTT10=
EXTT11=
PLAYORDER=
